<?xml version="1.0" encoding="UTF-8" standalone="no"?>
<!DOCTYPE svg PUBLIC "-//W3C//DTD SVG 1.1//EN" "http://www.w3.org/Graphics/SVG/1.1/DTD/svg11.dtd">
<!-- 由 Microsoft Visio, SVG Export 生成 sch_concat.svg 页-1 -->
<svg xmlns="http://www.w3.org/2000/svg" xmlns:xlink="http://www.w3.org/1999/xlink" xmlns:ev="http://www.w3.org/2001/xml-events"
		xmlns:v="http://schemas.microsoft.com/visio/2003/SVGExtensions/" width="10.786in" height="7.76633in"
		viewBox="0 0 776.59 559.176" xml:space="preserve" color-interpolation-filters="sRGB" class="st14">
	<v:documentProperties v:langID="2052" v:metric="true" v:viewMarkup="false"/>

	<style type="text/css">
	<![CDATA[
		.st1 {fill:#eeeaf2;stroke:#000000;stroke-linecap:round;stroke-linejoin:round;stroke-width:0.75}
		.st2 {fill:#000000;font-family:宋体;font-size:1.00001em}
		.st3 {fill:#ffffff;stroke:#000000;stroke-linecap:round;stroke-linejoin:round;stroke-width:0.24}
		.st4 {fill:#000000;font-family:宋体;font-size:0.499992em}
		.st5 {font-size:1em}
		.st6 {marker-end:url(#mrkr4-34);stroke:#000000;stroke-linecap:round;stroke-linejoin:round;stroke-width:0.75}
		.st7 {fill:#000000;fill-opacity:1;stroke:#000000;stroke-opacity:1;stroke-width:0.22935779816514}
		.st8 {fill:none;stroke:none;stroke-linecap:round;stroke-linejoin:round;stroke-width:0.75}
		.st9 {marker-start:url(#mrkr4-75);stroke:#000000;stroke-linecap:round;stroke-linejoin:round;stroke-width:0.75}
		.st10 {fill:#ffffff;stroke:#000000;stroke-linecap:round;stroke-linejoin:round;stroke-width:0.75}
		.st11 {fill:#ffffff;stroke:none;stroke-linecap:butt;stroke-width:7.2}
		.st12 {stroke:#000000;stroke-linecap:round;stroke-linejoin:round;stroke-width:0.75}
		.st13 {fill:#ffffff;stroke:#000000;stroke-dasharray:5.25,3.75;stroke-linecap:round;stroke-linejoin:round;stroke-width:0.75}
		.st14 {fill:none;fill-rule:evenodd;font-size:12px;overflow:visible;stroke-linecap:square;stroke-miterlimit:3}
	]]>
	</style>

	<defs id="Markers">
		<g id="lend4">
			<path d="M 2 1 L 0 0 L 2 -1 L 2 1 " style="stroke:none"/>
		</g>
		<marker id="mrkr4-34" class="st7" v:arrowType="4" v:arrowSize="2" v:setback="8.72" refX="-8.72" orient="auto"
				markerUnits="strokeWidth" overflow="visible">
			<use xlink:href="#lend4" transform="scale(-4.36,-4.36) "/>
		</marker>
		<marker id="mrkr4-75" class="st7" v:arrowType="4" v:arrowSize="2" v:setback="8.24" refX="8.24" orient="auto"
				markerUnits="strokeWidth" overflow="visible">
			<use xlink:href="#lend4" transform="scale(4.36) "/>
		</marker>
	</defs>
	<g v:mID="0" v:index="1" v:groupContext="foregroundPage">
		<title>页-1</title>
		<v:pageProperties v:drawingScale="0.0393701" v:pageScale="0.0393701" v:drawingUnits="24" v:shadowOffsetX="8.50394"
				v:shadowOffsetY="-8.50394"/>
		<v:layer v:name="连接线" v:index="0"/>
		<g id="shape24-1" v:mID="24" v:groupContext="shape" transform="translate(103.525,-0.375)">
			<title>工作表.24</title>
			<desc>sch_concat machine state</desc>
			<v:textBlock v:margins="rect(4,4,4,4)" v:tabSpace="42.5197" v:verticalAlign="0"/>
			<v:textRect cx="218.282" cy="279.963" width="436.57" height="558.426"/>
			<rect x="0" y="0.75" width="436.565" height="558.426" class="st1"/>
			<text x="146.28" y="15.55" class="st2" v:langID="2052"><v:paragraph v:horizAlign="1"/><v:tabList/>sch_concat machine state</text>		</g>
		<g id="shape25-4" v:mID="25" v:groupContext="shape" transform="translate(349.795,-359.512)">
			<title>圆形.585</title>
			<desc>START CONCAT</desc>
			<v:userDefs>
				<v:ud v:nameU="visVersion" v:val="VT0(15):26"/>
			</v:userDefs>
			<v:textBlock v:margins="rect(4,4,4,4)" v:tabSpace="42.5197"/>
			<v:textRect cx="29.21" cy="529.966" width="51.12" height="43.8149"/>
			<path d="M0 529.97 A29.21 29.21 0 1 1 58.42 529.97 A29.21 29.21 0 0 1 0 529.97 Z" class="st3"/>
			<text x="21.71" y="528.17" class="st4" v:langID="2052"><v:paragraph v:horizAlign="1"/><v:tabList/>START<v:newlineChar/><tspan
						x="20.21" dy="1.2em" class="st5">CONCAT</tspan></text>		</g>
		<g id="shape26-8" v:mID="26" v:groupContext="shape" transform="translate(410.774,-259.435)">
			<title>圆形.586</title>
			<desc>MASTER</desc>
			<v:userDefs>
				<v:ud v:nameU="visVersion" v:val="VT0(15):26"/>
			</v:userDefs>
			<v:textBlock v:margins="rect(4,4,4,4)" v:tabSpace="42.5197"/>
			<v:textRect cx="29.21" cy="529.966" width="51.12" height="43.8149"/>
			<path d="M0 529.97 A29.21 29.21 0 1 1 58.42 529.97 A29.21 29.21 0 0 1 0 529.97 Z" class="st3"/>
			<text x="20.21" y="531.77" class="st4" v:langID="2052"><v:paragraph v:horizAlign="1"/><v:tabList/>MASTER</text>		</g>
		<g id="shape27-11" v:mID="27" v:groupContext="shape" transform="translate(349.795,-161.63)">
			<title>圆形.587</title>
			<desc>WAIT ACK</desc>
			<v:userDefs>
				<v:ud v:nameU="visVersion" v:val="VT0(15):26"/>
			</v:userDefs>
			<v:textBlock v:margins="rect(4,4,4,4)" v:tabSpace="42.5197"/>
			<v:textRect cx="29.21" cy="529.966" width="51.12" height="43.8149"/>
			<path d="M0 529.97 A29.21 29.21 0 1 1 58.42 529.97 A29.21 29.21 0 0 1 0 529.97 Z" class="st3"/>
			<text x="23.21" y="528.17" class="st4" v:langID="2052"><v:paragraph v:horizAlign="1"/><v:tabList/>WAIT<v:newlineChar/><tspan
						x="24.71" dy="1.2em" class="st5">ACK</tspan></text>		</g>
		<g id="shape28-15" v:mID="28" v:groupContext="shape" transform="translate(349.795,-26.4409)">
			<title>圆形.588</title>
			<desc>CLEAR STATE</desc>
			<v:userDefs>
				<v:ud v:nameU="visVersion" v:val="VT0(15):26"/>
			</v:userDefs>
			<v:textBlock v:margins="rect(4,4,4,4)" v:tabSpace="42.5197"/>
			<v:textRect cx="29.21" cy="529.966" width="51.12" height="43.8149"/>
			<path d="M0 529.97 A29.21 29.21 0 1 1 58.42 529.97 A29.21 29.21 0 0 1 0 529.97 Z" class="st3"/>
			<text x="21.71" y="528.17" class="st4" v:langID="2052"><v:paragraph v:horizAlign="1"/><v:tabList/>CLEAR<v:newlineChar/><tspan
						x="21.71" dy="1.2em" class="st5">STATE</tspan></text>		</g>
		<g id="shape29-19" v:mID="29" v:groupContext="shape" transform="translate(288.391,-259.435)">
			<title>圆形.589</title>
			<desc>ORDER</desc>
			<v:userDefs>
				<v:ud v:nameU="visVersion" v:val="VT0(15):26"/>
			</v:userDefs>
			<v:textBlock v:margins="rect(4,4,4,4)" v:tabSpace="42.5197"/>
			<v:textRect cx="29.21" cy="529.966" width="51.12" height="43.8149"/>
			<path d="M0 529.97 A29.21 29.21 0 1 1 58.42 529.97 A29.21 29.21 0 0 1 0 529.97 Z" class="st3"/>
			<text x="21.71" y="531.77" class="st4" v:langID="2052"><v:paragraph v:horizAlign="1"/><v:tabList/>ORDER</text>		</g>
		<g id="shape30-22" v:mID="30" v:groupContext="shape" transform="translate(177.03,-259.435)">
			<title>圆形.590</title>
			<desc>WAIT LINE_END</desc>
			<v:userDefs>
				<v:ud v:nameU="visVersion" v:val="VT0(15):26"/>
			</v:userDefs>
			<v:textBlock v:margins="rect(4,4,4,4)" v:tabSpace="42.5197"/>
			<v:textRect cx="29.21" cy="529.966" width="51.12" height="43.8149"/>
			<path d="M0 529.97 A29.21 29.21 0 1 1 58.42 529.97 A29.21 29.21 0 0 1 0 529.97 Z" class="st3"/>
			<text x="23.21" y="528.17" class="st4" v:langID="2052"><v:paragraph v:horizAlign="1"/><v:tabList/>WAIT<v:newlineChar/><tspan
						x="17.21" dy="1.2em" class="st5">LINE_END</tspan></text>		</g>
		<g id="shape31-26" v:mID="31" v:groupContext="shape" transform="translate(349.795,-462.949)">
			<title>圆形.591</title>
			<desc>SILENT</desc>
			<v:userDefs>
				<v:ud v:nameU="visVersion" v:val="VT0(15):26"/>
			</v:userDefs>
			<v:textBlock v:margins="rect(4,4,4,4)" v:tabSpace="42.5197"/>
			<v:textRect cx="29.21" cy="529.966" width="51.12" height="43.8149"/>
			<path d="M0 529.97 A29.21 29.21 0 1 1 58.42 529.97 A29.21 29.21 0 0 1 0 529.97 Z" class="st3"/>
			<text x="20.21" y="531.77" class="st4" v:langID="2052"><v:paragraph v:horizAlign="1"/><v:tabList/>SILENT</text>		</g>
		<g id="shape32-29" v:mID="32" v:groupContext="shape" transform="translate(16.5368,-516.281)">
			<title>工作表.32</title>
			<path d="M0 559.18 L80.45 559.18" class="st6"/>
		</g>
		<g id="shape33-35" v:mID="33" v:groupContext="shape" transform="translate(15.6508,-519.207)">
			<title>工作表.33</title>
			<desc>master_pipe</desc>
			<v:textBlock v:margins="rect(4,4,4,4)" v:tabSpace="42.5197"/>
			<v:textRect cx="44.8191" cy="550.764" width="89.64" height="16.8239"/>
			<rect x="0" y="542.352" width="89.6382" height="16.8239" class="st8"/>
			<text x="28.32" y="552.56" class="st4" v:langID="2052"><v:paragraph v:horizAlign="1"/><v:tabList/>master_pipe</text>		</g>
		<g id="shape34-38" v:mID="34" v:groupContext="shape" transform="translate(16.5368,-494.324)">
			<title>工作表.34</title>
			<path d="M0 559.18 L80.45 559.18" class="st6"/>
		</g>
		<g id="shape35-43" v:mID="35" v:groupContext="shape" transform="translate(15.6508,-497.25)">
			<title>工作表.35</title>
			<desc>concat_pipe0</desc>
			<v:textBlock v:margins="rect(4,4,4,4)" v:tabSpace="42.5197"/>
			<v:textRect cx="44.8191" cy="550.764" width="89.64" height="16.8239"/>
			<rect x="0" y="542.352" width="89.6382" height="16.8239" class="st8"/>
			<text x="26.82" y="552.56" class="st4" v:langID="2052"><v:paragraph v:horizAlign="1"/><v:tabList/>concat_pipe0</text>		</g>
		<g id="shape36-46" v:mID="36" v:groupContext="shape" transform="translate(16.5368,-472.367)">
			<title>工作表.36</title>
			<path d="M0 559.18 L80.45 559.18" class="st6"/>
		</g>
		<g id="shape37-51" v:mID="37" v:groupContext="shape" transform="translate(15.6508,-475.293)">
			<title>工作表.37</title>
			<desc>concat_pipe1</desc>
			<v:textBlock v:margins="rect(4,4,4,4)" v:tabSpace="42.5197"/>
			<v:textRect cx="44.8191" cy="550.764" width="89.64" height="16.8239"/>
			<rect x="0" y="542.352" width="89.6382" height="16.8239" class="st8"/>
			<text x="26.82" y="552.56" class="st4" v:langID="2052"><v:paragraph v:horizAlign="1"/><v:tabList/>concat_pipe1</text>		</g>
		<g id="shape38-54" v:mID="38" v:groupContext="shape" transform="translate(16.5368,-450.41)">
			<title>工作表.38</title>
			<path d="M0 559.18 L80.45 559.18" class="st6"/>
		</g>
		<g id="shape39-59" v:mID="39" v:groupContext="shape" transform="translate(15.6508,-453.336)">
			<title>工作表.39</title>
			<desc>concat_pipe2</desc>
			<v:textBlock v:margins="rect(4,4,4,4)" v:tabSpace="42.5197"/>
			<v:textRect cx="44.8191" cy="550.764" width="89.64" height="16.8239"/>
			<rect x="0" y="542.352" width="89.6382" height="16.8239" class="st8"/>
			<text x="26.82" y="552.56" class="st4" v:langID="2052"><v:paragraph v:horizAlign="1"/><v:tabList/>concat_pipe2</text>		</g>
		<g id="shape40-62" v:mID="40" v:groupContext="shape" transform="translate(16.5368,-428.453)">
			<title>工作表.40</title>
			<path d="M0 559.18 L80.45 559.18" class="st6"/>
		</g>
		<g id="shape41-67" v:mID="41" v:groupContext="shape" transform="translate(15.6508,-431.379)">
			<title>工作表.41</title>
			<desc>concat_pipe3</desc>
			<v:textBlock v:margins="rect(4,4,4,4)" v:tabSpace="42.5197"/>
			<v:textRect cx="44.8191" cy="550.764" width="89.64" height="16.8239"/>
			<rect x="0" y="542.352" width="89.6382" height="16.8239" class="st8"/>
			<text x="26.82" y="552.56" class="st4" v:langID="2052"><v:paragraph v:horizAlign="1"/><v:tabList/>concat_pipe3</text>		</g>
		<g id="shape42-70" v:mID="42" v:groupContext="shape" transform="translate(660.077,643.884) rotate(180)">
			<title>工作表.42</title>
			<path d="M6.18 559.18 L6.54 559.18 L119.99 559.18" class="st9"/>
		</g>
		<g id="shape43-76" v:mID="43" v:groupContext="shape" transform="translate(661.657,664.78) rotate(180)">
			<title>工作表.43</title>
			<path d="M0 559.18 L115.03 559.18" class="st6"/>
		</g>
		<g id="shape44-81" v:mID="44" v:groupContext="shape" transform="translate(661.833,686.404) rotate(180)">
			<title>工作表.44</title>
			<path d="M0 559.18 L115.2 559.18" class="st6"/>
		</g>
		<g id="shape45-86" v:mID="45" v:groupContext="shape" transform="translate(661.833,623.789) rotate(180)">
			<title>工作表.45</title>
			<path d="M0 559.18 L115.2 559.18" class="st6"/>
		</g>
		<g id="shape46-91" v:mID="46" v:groupContext="shape" transform="translate(543.775,-475.209)">
			<title>工作表.46</title>
			<desc>up_state</desc>
			<v:textBlock v:margins="rect(4,4,4,4)" v:tabSpace="42.5197"/>
			<v:textRect cx="18.5212" cy="553.814" width="37.05" height="10.7234"/>
			<rect x="0" y="548.452" width="37.0423" height="10.7234" class="st8"/>
			<text x="6.52" y="555.61" class="st4" v:langID="2052"><v:paragraph v:horizAlign="1"/><v:tabList/>up_state</text>		</g>
		<g id="shape47-94" v:mID="47" v:groupContext="shape" transform="translate(543.775,-453.949)">
			<title>工作表.47</title>
			<desc>ack</desc>
			<v:textBlock v:margins="rect(4,4,4,4)" v:tabSpace="42.5197"/>
			<v:textRect cx="18.5212" cy="553.814" width="37.05" height="10.7234"/>
			<rect x="0" y="548.452" width="37.0423" height="10.7234" class="st8"/>
			<text x="14.02" y="555.61" class="st4" v:langID="2052"><v:paragraph v:horizAlign="1"/><v:tabList/>ack</text>		</g>
		<g id="shape48-97" v:mID="48" v:groupContext="shape" transform="translate(546.141,-432.69)">
			<title>工作表.48</title>
			<desc>line_end</desc>
			<v:textBlock v:margins="rect(4,4,4,4)" v:tabSpace="42.5197"/>
			<v:textRect cx="17.3383" cy="553.814" width="34.68" height="10.7234"/>
			<rect x="0" y="548.452" width="34.6766" height="10.7234" class="st8"/>
			<text x="5.34" y="555.61" class="st4" v:langID="2052"><v:paragraph v:horizAlign="1"/><v:tabList/>line_end</text>		</g>
		<g id="shape49-100" v:mID="49" v:groupContext="shape" transform="translate(543.775,-496.469)">
			<title>工作表.49</title>
			<desc>pkt_empty</desc>
			<v:textBlock v:margins="rect(4,4,4,4)" v:tabSpace="42.5197"/>
			<v:textRect cx="18.5212" cy="553.814" width="37.05" height="10.7234"/>
			<rect x="0" y="548.452" width="37.0423" height="10.7234" class="st8"/>
			<text x="5.02" y="555.61" class="st4" v:langID="2052"><v:paragraph v:horizAlign="1"/><v:tabList/>pkt_empty</text>		</g>
		<g id="shape50-103" v:mID="50" v:groupContext="shape" transform="translate(580.772,-486.215)">
			<title>工作表.50</title>
			<desc>pipe_concat_en</desc>
			<v:textBlock v:margins="rect(4,4,4,4)" v:tabSpace="42.5197"/>
			<v:textRect cx="31.4641" cy="550.813" width="62.93" height="16.7244"/>
			<rect x="0" y="542.451" width="62.9282" height="16.7244" class="st10"/>
			<text x="10.46" y="552.61" class="st4" v:langID="2052"><v:paragraph v:horizAlign="1"/><v:tabList/>pipe_concat_en</text>		</g>
		<g id="shape51-106" v:mID="51" v:groupContext="shape" transform="translate(580.773,-466.09)">
			<title>工作表.51</title>
			<desc>pipe_concat_en</desc>
			<v:textBlock v:margins="rect(4,4,4,4)" v:tabSpace="42.5197"/>
			<v:textRect cx="31.4641" cy="550.813" width="62.93" height="16.7244"/>
			<rect x="0" y="542.451" width="62.9282" height="16.7244" class="st10"/>
			<text x="10.46" y="552.61" class="st4" v:langID="2052"><v:paragraph v:horizAlign="1"/><v:tabList/>pipe_concat_en</text>		</g>
		<g id="shape52-109" v:mID="52" v:groupContext="shape" transform="translate(580.772,-444.83)">
			<title>工作表.52</title>
			<desc>pipe_concat_en</desc>
			<v:textBlock v:margins="rect(4,4,4,4)" v:tabSpace="42.5197"/>
			<v:textRect cx="31.4641" cy="550.813" width="62.93" height="16.7244"/>
			<rect x="0" y="542.451" width="62.9282" height="16.7244" class="st10"/>
			<text x="10.46" y="552.61" class="st4" v:langID="2052"><v:paragraph v:horizAlign="1"/><v:tabList/>pipe_concat_en</text>		</g>
		<g id="shape53-112" v:mID="53" v:groupContext="shape" transform="translate(580.773,-423.854)">
			<title>工作表.53</title>
			<desc>pipe_concat_en</desc>
			<v:textBlock v:margins="rect(4,4,4,4)" v:tabSpace="42.5197"/>
			<v:textRect cx="31.4641" cy="550.813" width="62.93" height="16.7244"/>
			<rect x="0" y="542.451" width="62.9282" height="16.7244" class="st10"/>
			<text x="10.46" y="552.61" class="st4" v:langID="2052"><v:paragraph v:horizAlign="1"/><v:tabList/>pipe_concat_en</text>		</g>
		<g id="shape54-115" v:mID="54" v:groupContext="shape" transform="translate(938.181,96.2264) rotate(90)">
			<title>工作表.54</title>
			<desc>start_sch_pulse_datatype_align</desc>
			<v:textBlock v:margins="rect(4,4,4,4)" v:tabSpace="42.5197"/>
			<v:textRect cx="19.2607" cy="558.277" width="122.62" height="0" transform="rotate(-90)"/>
			<path d="M0 559.18 L38.48 559.18" class="st6"/>
			<rect v:rectContext="textBkgnd" x="-603.279" y="15.6607" width="90.0027" height="7.20016" transform="rotate(-90)"
					class="st11"/>
			<text x="-603.28" y="21.06" transform="rotate(-90)" class="st4" v:langID="2052"><v:paragraph v:horizAlign="1"/><v:tabList/>start_sch_pulse_datatype_align</text>		</g>
		<g id="shape55-122" v:mID="55" v:groupContext="shape" transform="translate(938.181,397.546) rotate(90)">
			<title>工作表.55</title>
			<desc>ack_concat/ up_state_0~3 &#60;= 0</desc>
			<v:textBlock v:margins="rect(4,4,4,4)" v:tabSpace="42.5197"/>
			<v:textRect cx="38.3845" cy="559.176" width="76.77" height="0" transform="rotate(-90)"/>
			<path d="M0 559.18 L70.23 559.18" class="st6"/>
			<rect v:rectContext="textBkgnd" x="-584.676" y="30.8835" width="51.0016" height="15.0021" transform="rotate(-90)"
					class="st11"/>
			<text x="-575.68" y="36.28" transform="rotate(-90)" class="st4" v:langID="2052"><v:paragraph v:horizAlign="1"/><v:tabList/>ack_concat/<v:newlineChar/><tspan
						x="-584.68" dy="1.275em" class="st5">up_state_0~3 &#60;= 0</tspan></text>		</g>
		<g id="shape56-130" v:mID="56" v:groupContext="shape" transform="translate(792.537,543.47) rotate(129.06)">
			<title>工作表.56</title>
			<desc>~master_pipr_first_sch</desc>
			<v:textBlock v:margins="rect(4,4,4,4)" v:tabSpace="42.5197"/>
			<v:textRect cx="27.995" cy="558.978" width="78.09" height="0" transform="rotate(-129.06)"/>
			<path d="M0 559.18 L58.12 559.18" class="st6"/>
			<rect v:rectContext="textBkgnd" x="-484.678" y="-334.398" width="66.002" height="7.80222" transform="rotate(-129.06)"
					class="st11"/>
			<text x="-484.68" y="-328.55" transform="rotate(-129.06)" class="st4" v:langID="2052"><v:paragraph v:horizAlign="1"/><v:tabList/>~master_pipr_first_sch</text>		</g>
		<g id="shape57-137" v:mID="57" v:groupContext="shape" transform="translate(835.65,-159.021) rotate(51.2328)">
			<title>工作表.57</title>
			<desc>master_pipr_first_sch</desc>
			<v:textBlock v:margins="rect(4,4,4,4)" v:tabSpace="42.5197"/>
			<v:textRect cx="36.8645" cy="553.365" width="79.31" height="0" transform="rotate(-51.2328)"/>
			<path d="M0 559.18 L57.86 559.18" class="st6"/>
			<rect v:rectContext="textBkgnd" x="-439.875" y="371.636" width="63.0019" height="7.20016" transform="rotate(-51.2328)"
					class="st11"/>
			<text x="-439.87" y="377.04" transform="rotate(-51.2328)" class="st4" v:langID="2052"><v:paragraph v:horizAlign="1"/><v:tabList/>master_pipr_first_sch</text>		</g>
		<g id="shape58-144" v:mID="58" v:groupContext="shape" transform="translate(743.665,-62.4023) rotate(49.6364)">
			<title>工作表.58</title>
			<path d="M0 559.18 L56.38 559.18" class="st6"/>
		</g>
		<g id="shape59-149" v:mID="59" v:groupContext="shape" transform="translate(867.912,659.678) rotate(130.068)">
			<title>工作表.59</title>
			<path d="M0 559.18 L56.1 559.18" class="st6"/>
		</g>
		<g id="shape60-154" v:mID="60" v:groupContext="shape" transform="translate(235.45,-288.645)">
			<title>工作表.60</title>
			<path d="M0 559.18 L52.94 559.18" class="st12"/>
		</g>
		<g id="shape61-157" v:mID="61" v:groupContext="shape" v:layerMember="0" transform="translate(349.795,-55.6509)">
			<title>动态连接线.638</title>
			<path d="M0 559.18 L-143.55 559.18 L-143.55 361.93" class="st6"/>
		</g>
		<g id="shape62-162" v:mID="62" v:groupContext="shape" v:layerMember="0" transform="translate(206.24,-317.855)">
			<title>动态连接线.639</title>
			<desc>line_end_concat/</desc>
			<v:textBlock v:margins="rect(4,4,4,4)" v:tabSpace="42.5197"/>
			<v:textRect cx="-2.84217E-14" cy="400.246" width="59.01" height="15.2035"/>
			<path d="M0 559.18 L0 384.87 L137.01 384.87" class="st6"/>
			<rect v:rectContext="textBkgnd" x="-24.0006" y="396.345" width="48.0015" height="7.80222" class="st11"/>
			<text x="-24" y="402.2" class="st4" v:langID="2052"><v:paragraph v:horizAlign="1"/><v:tabList/>line_end_concat/</text>		</g>
		<g id="shape63-169" v:mID="63" v:groupContext="shape" transform="translate(19.2035,-374.244)">
			<title>工作表.63</title>
			<path d="M0 559.18 L77.78 559.18" class="st6"/>
		</g>
		<g id="shape64-174" v:mID="64" v:groupContext="shape" transform="translate(9.98147,-374.167)">
			<title>工作表.64</title>
			<desc>start_sch_pulse</desc>
			<v:textBlock v:margins="rect(4,4,4,4)" v:tabSpace="42.5197"/>
			<v:textRect cx="53.8584" cy="549.176" width="107.72" height="20"/>
			<rect x="0" y="539.176" width="107.717" height="20" class="st8"/>
			<text x="31.36" y="552.78" class="st4" v:langID="2052"><v:paragraph v:horizAlign="1"/><v:tabList/>start_sch_pulse</text>		</g>
		<g id="shape67-177" v:mID="67" v:groupContext="shape" transform="translate(15.6508,-320.466)">
			<title>工作表.67</title>
			<desc>end_sch_pulse</desc>
			<v:textBlock v:margins="rect(4,4,4,4)" v:tabSpace="42.5197"/>
			<v:textRect cx="48.0632" cy="549.176" width="96.13" height="20"/>
			<rect x="0" y="539.176" width="96.1263" height="20" class="st8"/>
			<text x="28.56" y="550.98" class="st4" v:langID="2052"><v:paragraph v:horizAlign="1"/><v:tabList/>end_sch_pulse</text>		</g>
		<g id="shape87-180" v:mID="87" v:groupContext="shape" transform="translate(16.3724,-259.435)">
			<title>工作表.87</title>
			<desc>pipe_mask_en</desc>
			<v:textBlock v:margins="rect(4,4,4,4)" v:tabSpace="42.5197"/>
			<v:textRect cx="53.8584" cy="549.176" width="107.72" height="20"/>
			<rect x="0" y="539.176" width="107.717" height="20" class="st8"/>
			<text x="35.86" y="550.98" class="st4" v:langID="2052"><v:paragraph v:horizAlign="1"/><v:tabList/>pipe_mask_en</text>		</g>
		<g id="shape89-183" v:mID="89" v:groupContext="shape" transform="translate(664.814,-410.568)">
			<title>工作表.89</title>
			<desc>PIPE0~3</desc>
			<v:textBlock v:margins="rect(4,4,4,4)" v:tabSpace="42.5197"/>
			<v:textRect cx="55.7004" cy="506.876" width="111.41" height="104.598"/>
			<path d="M0 559.18 L111.4 559.18 L111.4 454.58 L0 454.58 L0 559.18 Z" class="st13"/>
			<text x="34.7" y="510.48" class="st2" v:langID="2052"><v:paragraph v:horizAlign="1"/><v:tabList/>PIPE0~3</text>		</g>
		<g id="shape90-186" v:mID="90" v:groupContext="shape" transform="translate(660.077,785.757) rotate(180)">
			<title>工作表.90</title>
			<path d="M6.18 559.18 L6.54 559.18 L119.99 559.18" class="st9"/>
		</g>
		<g id="shape91-191" v:mID="91" v:groupContext="shape" transform="translate(661.658,806.653) rotate(180)">
			<title>工作表.91</title>
			<path d="M0 559.18 L115.03 559.18" class="st6"/>
		</g>
		<g id="shape92-196" v:mID="92" v:groupContext="shape" transform="translate(661.833,828.277) rotate(180)">
			<title>工作表.92</title>
			<path d="M0 559.18 L115.2 559.18" class="st6"/>
		</g>
		<g id="shape93-201" v:mID="93" v:groupContext="shape" transform="translate(661.833,765.662) rotate(180)">
			<title>工作表.93</title>
			<path d="M0 559.18 L115.2 559.18" class="st6"/>
		</g>
		<g id="shape94-206" v:mID="94" v:groupContext="shape" transform="translate(543.775,-333.336)">
			<title>工作表.94</title>
			<desc>up_state</desc>
			<v:textBlock v:margins="rect(4,4,4,4)" v:tabSpace="42.5197"/>
			<v:textRect cx="18.5212" cy="553.814" width="37.05" height="10.7234"/>
			<rect x="0" y="548.452" width="37.0423" height="10.7234" class="st8"/>
			<text x="6.52" y="555.61" class="st4" v:langID="2052"><v:paragraph v:horizAlign="1"/><v:tabList/>up_state</text>		</g>
		<g id="shape95-209" v:mID="95" v:groupContext="shape" transform="translate(543.775,-312.077)">
			<title>工作表.95</title>
			<desc>ack</desc>
			<v:textBlock v:margins="rect(4,4,4,4)" v:tabSpace="42.5197"/>
			<v:textRect cx="18.5212" cy="553.814" width="37.05" height="10.7234"/>
			<rect x="0" y="548.452" width="37.0423" height="10.7234" class="st8"/>
			<text x="14.02" y="555.61" class="st4" v:langID="2052"><v:paragraph v:horizAlign="1"/><v:tabList/>ack</text>		</g>
		<g id="shape96-212" v:mID="96" v:groupContext="shape" transform="translate(546.141,-290.817)">
			<title>工作表.96</title>
			<desc>line_end</desc>
			<v:textBlock v:margins="rect(4,4,4,4)" v:tabSpace="42.5197"/>
			<v:textRect cx="17.3383" cy="553.814" width="34.68" height="10.7234"/>
			<rect x="0" y="548.452" width="34.6766" height="10.7234" class="st8"/>
			<text x="5.34" y="555.61" class="st4" v:langID="2052"><v:paragraph v:horizAlign="1"/><v:tabList/>line_end</text>		</g>
		<g id="shape97-215" v:mID="97" v:groupContext="shape" transform="translate(543.775,-354.596)">
			<title>工作表.97</title>
			<desc>pkt_empty</desc>
			<v:textBlock v:margins="rect(4,4,4,4)" v:tabSpace="42.5197"/>
			<v:textRect cx="18.5212" cy="553.814" width="37.05" height="10.7234"/>
			<rect x="0" y="548.452" width="37.0423" height="10.7234" class="st8"/>
			<text x="5.02" y="555.61" class="st4" v:langID="2052"><v:paragraph v:horizAlign="1"/><v:tabList/>pkt_empty</text>		</g>
		<g id="shape98-218" v:mID="98" v:groupContext="shape" transform="translate(664.815,-268.695)">
			<title>工作表.98</title>
			<desc>black_pixel_gen</desc>
			<v:textBlock v:margins="rect(4,4,4,4)" v:tabSpace="42.5197"/>
			<v:textRect cx="55.7004" cy="506.876" width="111.41" height="104.598"/>
			<path d="M0 559.18 L111.4 559.18 L111.4 454.58 L0 454.58 L0 559.18 Z" class="st13"/>
			<text x="10.7" y="510.48" class="st2" v:langID="2052"><v:paragraph v:horizAlign="1"/><v:tabList/>black_pixel_gen</text>		</g>
		<g id="shape255-221" v:mID="255" v:groupContext="shape" transform="translate(101.435,792.661) rotate(180)">
			<title>工作表.255</title>
			<path d="M0 559.18 L87.58 559.18" class="st6"/>
		</g>
		<g id="shape256-226" v:mID="256" v:groupContext="shape" transform="translate(9.72745,-266.832)">
			<title>工作表.256</title>
			<path d="M0 559.18 L87 559.18" class="st6"/>
		</g>
	</g>
</svg>
